<svg width="82" height="30" viewBox="0 0 82 30" fill="none" xmlns="http://www.w3.org/2000/svg">
<mask id="mask0" mask-type="alpha" maskUnits="userSpaceOnUse" x="0" y="0" width="82" height="30">
<rect width="82" height="30" fill="#C4C4C4"/>
</mask>
<g mask="url(#mask0)">
<path fill-rule="evenodd" clip-rule="evenodd" d="M5.47261 12.1682C6.90664 12.1682 7.62352 12.5504 7.62352 13.3174C7.62352 13.8164 7.36182 14.1455 6.83823 14.3047C6.56521 14.3897 6.08711 14.4321 5.40427 14.4321V18.9944C5.40427 20.2498 4.94908 20.8762 4.03864 20.8762C3.11681 20.8762 2.65586 20.2498 2.65586 18.9944V14.4348C1.55193 14.4348 1 14.0632 1 13.3174C1 12.553 1.55193 12.1708 2.65586 12.1708V11.2764C2.65586 10.3528 2.88352 9.63622 3.33871 9.12398C3.82807 8.56136 4.55647 8.28001 5.52386 8.28001C6.73017 8.28001 7.33335 8.70996 7.33335 9.56991C7.33335 10.2706 6.91796 10.6209 6.08711 10.6209C5.81403 10.6209 5.64332 10.6872 5.57504 10.82C5.50677 10.9526 5.47261 11.4012 5.47261 12.1682ZM3.05675 29.4462H1.00192V26.7353H3.01371V27.2349H1.56557V27.7577H2.73195V28.2496H1.56557V28.9466H3.05675V29.4462ZM4.53819 30H4.00983V28.9466H4.27987C4.40251 28.7608 4.49383 28.5284 4.55389 28.2496C4.6113 27.9811 4.63997 27.6196 4.63997 27.1652V26.7353H6.56568V28.9466H6.9414V30H6.41304V29.4462H4.53819V30ZM4.9022 28.9466H6.00203V27.2349H5.19965C5.19965 27.6093 5.17813 27.9307 5.13509 28.1992C5.09205 28.4677 5.01444 28.7169 4.9022 28.9466ZM8.55985 29.4462H8.08626V26.7353H8.64991V28.5013L9.97674 26.7353H10.462V29.4462H9.90237V27.6687L8.55985 29.4462ZM12.3663 29.4462H11.8026V26.7353H12.3663V27.75H13.6031V26.7353H14.1628V29.4462H13.6031V28.2573H12.3663V29.4462ZM18.5289 29.4462H17.9653V26.7353H18.5289V29.4462ZM16.5758 29.4462H15.5033V26.7353H16.067V27.6299H16.5758C16.9019 27.6299 17.1603 27.7151 17.3508 27.8855C17.5412 28.0508 17.6365 28.2689 17.6365 28.54C17.6365 28.8111 17.5412 29.0293 17.3508 29.1945C17.1577 29.3623 16.8994 29.4462 16.5758 29.4462ZM16.067 28.1024V28.9544H16.5445C16.7089 28.9544 16.8374 28.9176 16.93 28.844C17.0227 28.7704 17.069 28.6665 17.069 28.5323C17.069 28.3954 17.0227 28.2896 16.93 28.2147C16.8374 28.1398 16.7089 28.1024 16.5445 28.1024H16.067ZM20.343 29.4462H19.8694V26.7353H20.4331V28.5013L21.7599 26.7353H22.2452V29.4462H21.6855V27.6687L20.343 29.4462ZM20.3391 25.926H20.754C20.754 26.0111 20.7807 26.0795 20.8342 26.1312C20.8877 26.1829 20.9601 26.2087 21.0515 26.2087C21.1428 26.2087 21.2158 26.1829 21.2707 26.1312C21.3254 26.0795 21.3541 26.0111 21.3567 25.926H21.7716C21.769 26.1273 21.7011 26.288 21.5681 26.4081C21.435 26.5282 21.2641 26.5882 21.0554 26.5882C20.8466 26.5882 20.6757 26.5282 20.5427 26.4081C20.4096 26.288 20.3417 26.1273 20.3391 25.926ZM26.9792 29.5004C26.5538 29.5004 26.2003 29.3688 25.9185 29.1055C25.6367 28.8369 25.4958 28.4987 25.4958 28.0908C25.4958 27.6777 25.6354 27.3395 25.9146 27.0762C26.1964 26.8128 26.5513 26.6812 26.9792 26.6812C27.2453 26.6812 27.4867 26.738 27.7033 26.8515V27.4131C27.4919 27.2737 27.2519 27.2039 26.9831 27.2039C26.7248 27.2039 26.5069 27.2879 26.3294 27.4557C26.1573 27.6209 26.0711 27.8326 26.0711 28.0908C26.0711 28.349 26.1598 28.562 26.3373 28.7298C26.5121 28.895 26.7352 28.9776 27.0066 28.9776C27.3067 28.9776 27.5571 28.8989 27.7581 28.7414V29.3029C27.5363 29.4346 27.2766 29.5004 26.9792 29.5004ZM31.0282 29.4462H28.9733V26.7353H30.9851V27.2349H29.537V27.7577H30.7034V28.2496H29.537V28.9466H31.0282V29.4462ZM32.7758 29.4462H32.2122V26.7353H33.4099C33.7047 26.7353 33.937 26.8115 34.1066 26.9638C34.2788 27.1136 34.3649 27.3098 34.3649 27.5525C34.3649 27.7977 34.2788 27.9953 34.1066 28.145C33.937 28.2973 33.7047 28.3735 33.4099 28.3735H32.7758V29.4462ZM32.7758 27.2233V27.8971H33.3707C33.5064 27.8971 33.6121 27.8681 33.6878 27.81C33.7634 27.7519 33.8013 27.6687 33.8013 27.5602C33.8013 27.4518 33.7634 27.3685 33.6878 27.3104C33.6121 27.2524 33.5064 27.2233 33.3707 27.2233H32.7758ZM36.9032 29.4462H35.5254V26.7353H36.8131C37.0663 26.7353 37.2678 26.7947 37.4178 26.9135C37.5679 27.0323 37.6429 27.1988 37.6429 27.4131C37.6429 27.5447 37.6103 27.6571 37.545 27.75C37.4798 27.843 37.3976 27.91 37.2985 27.9514C37.4472 27.9824 37.5777 28.0624 37.6898 28.1915C37.7994 28.318 37.8543 28.4793 37.8543 28.6756C37.8543 28.9054 37.7682 29.0912 37.5959 29.2332C37.4264 29.3752 37.1954 29.4462 36.9032 29.4462ZM36.0891 28.2573V28.966H36.7975C36.9384 28.966 37.048 28.9357 37.1263 28.875C37.2045 28.8144 37.2437 28.7272 37.2437 28.6136C37.2437 28.5 37.2045 28.4122 37.1263 28.3503C37.048 28.2883 36.9384 28.2573 36.7975 28.2573H36.0891ZM36.0891 27.2001V27.7964H36.7231C36.8405 27.7964 36.9325 27.7706 36.9991 27.719C37.0656 27.6674 37.0988 27.5951 37.0988 27.5021C37.0988 27.4066 37.0656 27.3324 36.9991 27.2795C36.9325 27.2265 36.8405 27.2001 36.7231 27.2001H36.0891ZM39.5354 29.4462H39.0618V26.7353H39.6254V28.5013L40.9522 26.7353H41.4376V29.4462H40.8779V27.6687L39.5354 29.4462ZM44.1676 29.5004C43.7423 29.5004 43.3888 29.3688 43.1069 29.1055C42.8252 28.8369 42.6843 28.4987 42.6843 28.0908C42.6843 27.6777 42.8238 27.3395 43.103 27.0762C43.3848 26.8128 43.7397 26.6812 44.1676 26.6812C44.4338 26.6812 44.6751 26.738 44.8917 26.8515V27.4131C44.6804 27.2737 44.4403 27.2039 44.1715 27.2039C43.9132 27.2039 43.6954 27.2879 43.5179 27.4557C43.3457 27.6209 43.2596 27.8326 43.2596 28.0908C43.2596 28.349 43.3483 28.562 43.5258 28.7298C43.7006 28.895 43.9237 28.9776 44.195 28.9776C44.4951 28.9776 44.7456 28.8989 44.9466 28.7414V29.3029C44.7247 29.4346 44.4651 29.5004 44.1676 29.5004ZM48.9916 29.5004C48.5949 29.5004 48.2649 29.4165 48.0014 29.2487V28.7066C48.1213 28.7892 48.2649 28.8556 48.4319 28.906C48.5988 28.9563 48.7594 28.9815 48.9133 28.9815C49.122 28.9815 49.2845 28.9466 49.4005 28.8769C49.5167 28.8072 49.5748 28.7104 49.5748 28.5865C49.5748 28.478 49.5233 28.3948 49.4201 28.3367C49.3171 28.2786 49.1742 28.2496 48.9916 28.2496H48.6471V27.781H49.0581C49.3529 27.781 49.5004 27.6816 49.5004 27.4828C49.5004 27.3924 49.4547 27.3221 49.3634 27.2717C49.2721 27.2214 49.1468 27.1962 48.9877 27.1962C48.6719 27.1962 48.3797 27.2633 48.1109 27.3975V26.8825C48.364 26.7482 48.6654 26.6812 49.015 26.6812C49.3334 26.6812 49.5852 26.7521 49.7704 26.8941C49.961 27.0361 50.0562 27.222 50.0562 27.4518C50.0562 27.5809 50.0203 27.6925 49.9485 27.7868C49.8768 27.881 49.7887 27.9501 49.6844 27.994C49.8253 28.0456 49.9388 28.1276 50.0249 28.2399C50.1109 28.3522 50.154 28.4871 50.154 28.6446C50.154 28.8847 50.0496 29.0886 49.8409 29.2565C49.6348 29.4191 49.3517 29.5004 48.9916 29.5004ZM51.6433 29.4462H51.0523L52.2265 26.7199H52.7666L53.9408 29.4462H53.3419L53.0719 28.8189H51.9133L51.6433 29.4462ZM52.4926 27.4169L52.0895 28.358H52.8919L52.4926 27.4169ZM55.6023 29.4462H55.0387V26.7353H55.6023V27.8042L56.6121 26.7353H57.301L56.1385 27.9784L57.5006 29.4462H56.7804L55.6023 28.1953V29.4462ZM58.8882 29.4462H58.2972L59.4714 26.7199H60.0115L61.1857 29.4462H60.5868L60.3168 28.8189H59.1582L58.8882 29.4462ZM59.7375 27.4169L59.3344 28.358H60.1367L59.7375 27.4169ZM63.1094 29.5004C62.7128 29.5004 62.3827 29.4165 62.1192 29.2487V28.7066C62.2392 28.7892 62.3827 28.8556 62.5497 28.906C62.7167 28.9563 62.8772 28.9815 63.0311 28.9815C63.2399 28.9815 63.4023 28.9466 63.5184 28.8769C63.6345 28.8072 63.6926 28.7104 63.6926 28.5865C63.6926 28.478 63.6411 28.3948 63.538 28.3367C63.4349 28.2786 63.292 28.2496 63.1094 28.2496H62.7649V27.781H63.176C63.4708 27.781 63.6182 27.6816 63.6182 27.4828C63.6182 27.3924 63.5725 27.3221 63.4812 27.2717C63.3899 27.2214 63.2646 27.1962 63.1055 27.1962C62.7898 27.1962 62.4975 27.2633 62.2288 27.3975V26.8825C62.4819 26.7482 62.7832 26.6812 63.1328 26.6812C63.4512 26.6812 63.703 26.7521 63.8883 26.8941C64.0788 27.0361 64.174 27.222 64.174 27.4518C64.174 27.5809 64.1381 27.6925 64.0663 27.7868C63.9946 27.881 63.9065 27.9501 63.8022 27.994C63.9431 28.0456 64.0566 28.1276 64.1427 28.2399C64.2288 28.3522 64.2719 28.4871 64.2719 28.6446C64.2719 28.8847 64.1674 29.0886 63.9587 29.2565C63.7526 29.4191 63.4695 29.5004 63.1094 29.5004ZM65.7611 29.4462H65.1701L66.3443 26.7199H66.8845L68.0587 29.4462H67.4598L67.1897 28.8189H66.0312L65.7611 29.4462ZM66.6105 27.4169L66.2073 28.358H67.0097L66.6105 27.4169ZM73.2152 29.4462H71.1604V26.7353H73.1722V27.2349H71.7241V27.7577H72.8904V28.2496H71.7241V28.9466H73.2152V29.4462ZM74.6967 30H74.1683V28.9466H74.4384C74.561 28.7608 74.6523 28.5284 74.7124 28.2496C74.7698 27.9811 74.7985 27.6196 74.7985 27.1652V26.7353H76.7242V28.9466H77.0999V30H76.5715V29.4462H74.6967V30ZM75.0607 28.9466H76.1605V27.2349H75.3581C75.3581 27.6093 75.3366 27.9307 75.2936 28.1992C75.2505 28.4677 75.1729 28.7169 75.0607 28.9466ZM81.2703 29.4462H80.7067V26.7353H81.2703V29.4462ZM79.3172 29.4462H78.2448V26.7353H78.8084V27.6299H79.3172C79.6433 27.6299 79.9017 27.7151 80.0922 27.8855C80.2826 28.0508 80.3779 28.2689 80.3779 28.54C80.3779 28.8111 80.2826 29.0293 80.0922 29.1945C79.8991 29.3623 79.6408 29.4462 79.3172 29.4462ZM78.8084 28.1024V28.9544H79.2859C79.4502 28.9544 79.5788 28.9176 79.6714 28.844C79.7641 28.7704 79.8104 28.6665 79.8104 28.5323C79.8104 28.3954 79.7641 28.2896 79.6714 28.2147C79.5788 28.1398 79.4502 28.1024 79.2859 28.1024H78.8084ZM38.6689 0H38.0332C37.8772 0 37.7506 0.125147 37.7506 0.279643V2.45962V3.80907V3.82721H37.75C37.7406 3.95956 37.6293 4.06394 37.4931 4.06394H36.9134C36.7774 4.06394 36.6659 3.95956 36.6564 3.82721H36.6558V3.80907V2.45962V0.279643C36.6558 0.125147 36.5294 0 36.3732 0H35.6669C35.5109 0 35.3843 0.125147 35.3843 0.279643V2.45962V3.80907V3.82721H35.3837C35.3742 3.95956 35.263 4.06394 35.1268 4.06394H34.5472C34.4112 4.06394 34.2996 3.95956 34.2902 3.82721H34.2895V3.80907V2.45962V0.279643C34.2895 0.125147 34.1632 0 34.007 0H33.3714C33.2154 0 33.0888 0.125147 33.0888 0.279643V4.36821C33.0888 5.60438 33.9277 6.708 35.1284 7.05178L35.1284 8.6065C34.8303 8.91097 34.6813 9.42845 34.6813 10.1591V12.5159H34.5958C33.9813 12.0169 33.2586 11.7674 32.4278 11.7674C31.1646 11.7674 30.1289 12.2451 29.3209 13.2006C28.5584 14.0818 28.1771 15.1222 28.1771 16.3218C28.1771 17.4896 28.5641 18.53 29.3379 19.443C30.1802 20.4197 31.2101 20.908 32.4278 20.908C33.3611 20.908 34.1122 20.6161 34.6813 20.0322C34.9999 20.5949 35.4381 20.8762 35.9956 20.8762C36.9061 20.8762 37.3614 20.2498 37.3614 18.9944V10.1617C37.3614 9.44162 37.2115 8.92853 36.9119 8.62183V7.05178C38.113 6.708 38.9516 5.60431 38.9516 4.36821V0.279643C38.9515 0.125147 38.8252 0 38.6689 0ZM7.74305 16.4014C7.74305 15.0957 8.17843 13.9995 9.04901 13.113C9.91965 12.2266 11.0435 11.7834 12.4205 11.7834C13.8204 11.7834 14.9471 12.2239 15.8006 13.1051C16.6542 13.9862 17.0809 15.085 17.0809 16.4014C17.0809 17.7072 16.6599 18.7954 15.8177 19.6659C14.9414 20.5577 13.809 21.0036 12.4205 21.0036C11.0435 21.0036 9.91111 20.5524 9.02345 19.65C8.16982 18.7795 7.74305 17.6966 7.74305 16.4014ZM10.594 16.3855C10.594 16.9694 10.7419 17.4631 11.0378 17.8665C11.3679 18.3336 11.8287 18.5672 12.4205 18.5672C13.0237 18.5672 13.4904 18.3336 13.8204 17.8665C14.1049 17.4737 14.2472 16.98 14.2472 16.3855C14.2472 15.8123 14.0992 15.3239 13.8033 14.9205C13.4733 14.4534 13.0123 14.2198 12.4205 14.2198C11.8173 14.2198 11.3508 14.4481 11.0207 14.9045C10.7362 15.3079 10.594 15.8016 10.594 16.3855ZM17.9687 16.4014C17.9687 15.0957 18.404 13.9995 19.2746 13.113C20.1453 12.2266 21.2691 11.7834 22.6462 11.7834C24.0459 11.7834 25.1727 12.2239 26.0262 13.1051C26.8797 13.9862 27.3065 15.085 27.3065 16.4014C27.3065 17.7072 26.8854 18.7954 26.0432 19.6659C25.167 20.5577 24.0346 21.0036 22.6462 21.0036C21.2691 21.0036 20.1367 20.5524 19.249 19.65C18.3954 18.7795 17.9687 17.6966 17.9687 16.4014ZM20.8195 16.3855C20.8195 16.9694 20.9674 17.4631 21.2634 17.8665C21.5934 18.3336 22.0543 18.5672 22.6462 18.5672C23.2493 18.5672 23.7159 18.3336 24.0459 17.8665C24.3304 17.4737 24.4727 16.98 24.4727 16.3855C24.4727 15.8123 24.3247 15.3239 24.0289 14.9205C23.6988 14.4534 23.2379 14.2198 22.6462 14.2198C22.0429 14.2198 21.5763 14.4481 21.2463 14.9045C20.9617 15.3079 20.8195 15.8016 20.8195 16.3855ZM34.6813 16.4811V16.0192C34.6813 14.7772 34.0666 14.1561 32.8375 14.1561C32.2457 14.1561 31.7792 14.395 31.4377 14.8727C31.1532 15.2761 31.011 15.7698 31.011 16.3536C31.011 16.9269 31.1589 17.4153 31.4548 17.8187C31.7963 18.2752 32.2571 18.5035 32.8375 18.5035C33.4407 18.5035 33.9074 18.3017 34.2373 17.8983C34.5333 17.5268 34.6813 17.0543 34.6813 16.4811ZM39.3416 10.1617C39.3416 9.43199 39.4973 8.91484 39.8089 8.60965L39.8145 0.279573C39.8145 0.204225 39.8455 0.132154 39.9 0.0794109C39.9547 0.026995 40.0274 -0.00307918 40.1043 0.000262336C41.1598 0.0272565 43.615 0.370126 43.615 2.96406V7.37198C43.615 7.44621 43.5852 7.51717 43.5323 7.56958C43.4793 7.622 43.4072 7.65148 43.3325 7.65148C43.3325 7.65148 43.3325 7.65148 43.3322 7.65148L41.5753 7.6509V8.56038C41.9184 8.85751 42.09 9.3911 42.09 10.1617V18.9944C42.09 20.2498 41.6348 20.8762 40.7244 20.8762C39.8025 20.8762 39.3416 20.2498 39.3416 18.9944V10.1617ZM46.3919 17.1181C46.4488 17.617 46.6708 17.9992 47.0577 18.2646C47.4446 18.53 47.9169 18.6627 48.4745 18.6627C48.9412 18.6627 49.5045 18.522 50.1646 18.2407C50.8247 17.9593 51.2344 17.8187 51.3937 17.8187C52.1221 17.8187 52.4862 18.1531 52.4862 18.8219C52.4862 19.0767 52.3838 19.3315 52.179 19.5863C51.8148 20.0534 51.2344 20.4091 50.4377 20.6533C49.7663 20.8655 49.0663 20.9717 48.338 20.9717C46.9723 20.9717 45.8342 20.5338 44.9238 19.6579C44.0133 18.7821 43.5581 17.7019 43.5581 16.4173C43.5581 15.1434 43.9935 14.0553 44.864 13.1529C45.7347 12.2505 46.8472 11.7993 48.2015 11.7993C48.8729 11.7993 49.4817 11.916 50.028 12.1496C50.8133 12.4893 51.4562 12.9936 51.9571 13.6625C52.4578 14.3312 52.7082 15.0585 52.7082 15.8441C52.7082 16.2687 52.5432 16.5925 52.2132 16.8155C51.9286 17.0172 51.5531 17.1181 51.0864 17.1181H46.3919ZM46.3578 15.4301H49.9939C49.9597 14.9841 49.7748 14.6179 49.4391 14.3312C49.1034 14.0447 48.6965 13.9013 48.2185 13.9013C47.7291 13.9013 47.3194 14.042 46.9893 14.3233C46.6594 14.6047 46.4488 14.9735 46.3578 15.4301ZM53.9544 18.9944V13.8084C53.9544 12.5636 54.421 11.9426 55.3542 11.9426C55.9005 11.9426 56.3386 12.2133 56.6687 12.7548C57.2377 12.1921 57.8579 11.9107 58.5295 11.9107C58.9278 11.9107 59.2635 12.0302 59.5366 12.2691C59.8097 12.5079 59.9463 12.8131 59.9463 13.1847C59.9463 13.5881 59.713 13.9119 59.2492 14.1561C59.1923 14.1773 58.7343 14.3418 57.875 14.6497C57.3316 14.8515 57.0044 15.0797 56.8905 15.3345C56.7996 15.5362 56.754 15.8653 56.754 16.3218V18.9971C56.754 20.2498 56.2903 20.8762 55.3627 20.8762C54.4238 20.8762 53.9544 20.2498 53.9544 18.9944ZM58.5295 19.3873C58.5295 18.9706 58.6831 18.6149 58.9903 18.323C59.2976 18.0284 59.6732 17.8824 60.1171 17.8824C60.5723 17.8824 60.9507 18.0257 61.2523 18.315C61.5539 18.6016 61.7046 18.96 61.7046 19.3873C61.7046 19.8039 61.551 20.1569 61.2438 20.4436C60.9365 20.7329 60.5609 20.8762 60.1171 20.8762C59.6732 20.8762 59.2976 20.7329 58.9903 20.4436C58.6831 20.1569 58.5295 19.8039 58.5295 19.3873ZM65.7846 12.5159H65.8529C66.4448 12.0169 67.1674 11.7674 68.021 11.7674C69.3069 11.7674 70.3483 12.2505 71.1449 13.2165C71.8846 14.1083 72.2545 15.17 72.2545 16.4014C72.2545 17.2932 72.0269 18.1053 71.5717 18.8378C71.1051 19.6022 70.4564 20.1755 69.6256 20.5577C69.1135 20.7912 68.5785 20.908 68.021 20.908C67.0649 20.908 66.3195 20.6161 65.7846 20.0322C65.4318 20.5949 64.9937 20.8762 64.4701 20.8762C63.537 20.8762 63.0704 20.2498 63.0704 18.9944V10.1617C63.0704 8.90639 63.537 8.28001 64.4701 8.28001C65.3465 8.28001 65.7846 8.90639 65.7846 10.1591V12.5159ZM65.7846 16.4333C65.7846 17.0065 65.9326 17.4843 66.2313 17.8665C66.5613 18.2911 67.0251 18.5035 67.6198 18.5035C68.2144 18.5035 68.6838 18.2752 69.0252 17.8187C69.3126 17.4259 69.4549 16.9376 69.4549 16.3536C69.4549 15.7592 69.3126 15.2602 69.0252 14.8568C68.6952 14.3897 68.2258 14.1561 67.6198 14.1561C67.0137 14.1561 66.5443 14.3738 66.2143 14.809C65.9269 15.1912 65.7846 15.6742 65.7846 16.2581V16.4333ZM79.9023 11.9426C80.8128 11.9426 81.268 12.3514 81.268 13.1688C81.268 13.4342 81.1941 13.7315 81.0461 14.0606L76.8295 23.3763C76.5109 24.0664 76.1069 24.4114 75.6175 24.4114C75.2078 24.4114 74.8778 24.2999 74.6273 24.0796C74.377 23.8567 74.2518 23.5568 74.2518 23.1773C74.2518 22.9225 74.3286 22.6331 74.4795 22.304L75.6175 19.9977L72.8349 13.9331C72.7325 13.7102 72.6813 13.4714 72.6813 13.2165C72.6813 12.8556 72.8093 12.553 73.0655 12.3089C73.3215 12.0647 73.643 11.9426 74.0299 11.9426C74.4282 11.9426 74.7412 12.0647 74.9688 12.3089C75.1055 12.4575 75.259 12.7495 75.4297 13.1847L77.0003 17.0702L78.6903 12.9618C78.9748 12.2824 79.3788 11.9426 79.9023 11.9426Z" fill="black"/>
</g>
</svg>
